#!OML:ASF E:/inclinewalkrobotboard/Project1/Captureday1/Session1/subject1.ASF
:FULLY-SPECIFIED
:DEGREES
176
root 0 0 0 -0.3907890526579957 -2.0290938733724637 -3.8799689054221536
lowerback 16.487095819835776 1.106032987542157 -0.11569957280404419
upperback 0.6892104764238633 1.4501261357499302 0.33004445996063947
thorax -8.578835684446394 0.6870290083378161 0.0514311343334547
lowerneck -7.467969334384824 -3.2688640230789585 1.2855066985391437
upperneck -5.770132607804705 -4.24553843475891 1.7547501179179519
head -0.6582655881347206 -2.197843999479918 0.2452809160648074
rclavicle -3.80251518030636E-16 1.5903683773587335E-17
rhumerus 12.067850336012057 0.46957571554266053 -39.4730741602108
rradius 118.68635457489947
rwrist -30.760120427795066
rhand -11.690422834913095 -36.498724896069774
rfingers 7.125019999999963
rthumb 14.393542489896383 -65.91631120160112
lclavicle -4.0881784897434114E-16 -4.65263556811749E-16
lhumerus -43.317398981522544 -0.3888559098507034 83.147568059563
lradius 45.235048340126255
lwrist 1.9555914238990941
lhand -15.613360023281682 -12.114681964854462
lfingers 7.125019999999933
lthumb 10.529902106585489 17.019953877369993
rfemur -2.787453126817301 1.0374031536059332 5.574610063916216
rtibia 8.346747163350326
rfoot -1.571599112639133 -1.360187541096649
rtoes 0.7992821544091293
lfemur -6.5135383850176005 -3.571148473174163 -12.232507938236367
ltibia 27.404431159135754
lfoot -19.272359685691864 7.975154340573241
ltoes -43.321422894637955
177
root 0 0 0 -0.39007697884903736 -2.0290927066906024 -3.880597020834056
lowerback 16.48676307844531 1.1061260988227064 -0.11549663632993301
upperback 0.6889585104708207 1.4502117896279865 0.3298638442904265
thorax -8.578906769555859 0.6870890465939467 0.05111579275749334
lowerneck -7.465989139696554 -3.268552354343924 1.2863576585585146
upperneck -5.772244400912584 -4.245273533802148 1.754919901065717
head -0.659464551367634 -2.1977051999762285 0.24530410167921762
rclavicle -3.8004752769131295E-16 1.6223917427991426E-17
rhumerus 12.073845375646272 0.4775568241500725 -39.46592197514009
rradius 118.70636753458251
rwrist -30.769578506861283
rhand -11.687396281866329 -36.51742312375854
rfingers 7.125019999999963
rthumb 14.396399389868673 -65.93448925042514
lclavicle -4.0869826663488004E-16 -4.648902423323449E-16
lhumerus -43.3211862198548 -0.38888524199508234 83.14827440159414
lradius 45.24069605049626
lwrist 1.9536146485793657
lhand -15.608934102972093 -12.128782889720894
lfingers 7.125019999999933
lthumb 10.534095840810501 17.00655328547845
rfemur -2.7870790931955955 1.037326108356998 5.573993614542882
rtibia 8.345298739241056
rfoot -1.571595116408235 -1.3600295385863546
rtoes 0.7991162500897848
lfemur -6.512360597062527 -3.5720348725451196 -12.229721940270739
ltibia 27.40185798940555
lfoot -19.277384530065845 7.979548115597806
ltoes -43.33601799209362
178
root 0 0 0 -0.39179571474043307 -2.028546359614783 -3.880722390112905
lowerback 16.486718961278058 1.1092835076165743 -0.11391786361264322
upperback 0.6904793909781313 1.4547796351347122 0.3293830244089354
thorax -8.576849572846651 0.6892520221858274 0.04919946738453984
lowerneck -7.470459810377839 -3.2727938665236938 1.2800589033843668
upperneck -5.752645619628318 -4.251978586821294 1.7615836901220183
head -0.6520777558177207 -2.200278368396889 0.24754323932746292
rclavicle -3.7928445779878364E-16 1.5415440305221767E-17
rhumerus 12.071580138738128 0.45604730722684295 -39.4749078504495
rradius 118.66920087490735
rwrist -30.75195030469747
rhand -11.696876422253473 -36.4682441607232
rfingers 7.125019999999963
rthumb 14.387726866630318 -65.88659124102986
lclavicle -4.105716244843711E-16 -4.647593922471345E-16
lhumerus -43.31205935591982 -0.3884243257450798 83.14784582705141
lradius 45.22645069072698
lwrist 1.9562503108815334
lhand -15.618273962746944 -12.099760799471444
lfingers 7.125019999999933
lthumb 10.525383723027314 17.034373192493767
rfemur -2.7823647845341357 1.035713823796647 5.565291516203716
rtibia 8.33228506534752
rfoot -1.5683354608288083 -1.3575369637247352
rtoes 0.7983989654846797
lfemur -6.515315371956204 -3.570062203123859 -12.235841612675008
ltibia 27.408153284341463
lfoot -19.266268445901108 7.970062979839234
ltoes -43.30424206724547
179
root 0 0 0 -0.39138667509108827 -2.0290938113264514 -3.879736181050028
lowerback 16.488423547548123 1.1062146659524639 -0.1157757781237071
upperback 0.6889978875664525 1.4504138998231833 0.32996800752752964
thorax -8.579753470314056 0.6871423080404454 0.05132248663751615
lowerneck -7.469880160594495 -3.2694930476169723 1.284847680996688
upperneck -5.772859395150153 -4.246273195812891 1.754863006930555
head -0.6587076278590445 -2.198222798842711 0.24533300405030944
rclavicle -3.8065526220456027E-16 1.5725245220601875E-17
rhumerus 12.065846421208661 0.4632283351697719 -39.47653009740698
rradius 118.67404505845094
rwrist -30.754242390462203
rhand -11.692999098964176 -36.484467102148564
rfingers 7.125019999999963
rthumb 14.391115420729784 -65.90259067920582
lclavicle -4.086222228505467E-16 -4.652831829843078E-16
lhumerus -43.31682645474332 -0.3884645529952555 83.14759202525983
lradius 45.23342025714691
lwrist 1.9553750603081204
lhand -15.614066435498273 -12.11244587495206
lfingers 7.125019999999933
lthumb 10.529340731975683 17.02191664429598
rfemur -2.784995181395055 1.0364075255421183 5.569501669736429
rtibia 8.339750302452138
rfoot -1.5699861372475463 -1.3589014028981254
rtoes 0.7985850535975516
lfemur -6.514690677747949 -3.570341897082238 -12.234998178949665
ltibia 27.40693844647821
lfoot -19.26767861747031 7.97104706607402
ltoes -43.3080348404748
180
root 0 0 0 -0.39094794234475205 -2.0292624005346975 -3.879979791826316
lowerback 16.48924869075718 1.1057192509579554 -0.11600473967537439
upperback 0.6883950114103531 1.4496753732178511 0.3299137133134272
thorax -8.58085265909593 0.6867868614119877 0.051428863981495376
lowerneck -7.468812366849624 -3.268780779553655 1.286372742366546
upperneck -5.7803756718914165 -4.24513137553764 1.7535690621699183
head -0.6615175015059265 -2.197820595447612 0.24488463155587348
rclavicle -3.8038390082724034E-16 1.590932153684296E-17
rhumerus 12.070082460999267 0.4689457919583422 -39.4714714176032
rradius 118.68840498302322
rwrist -30.760880487355667
rhand -11.690832532504873 -36.49786143579947
rfingers 7.125019999999963
rthumb 14.393154222014372 -65.91548384762145
lclavicle -4.0866185167219074E-16 -4.65184056069059E-16
lhumerus -43.31838509296945 -0.3887450945111818 83.14775036370992
lradius 45.23628070959045
lwrist 1.9549903186972233
lhand -15.612260548739632 -12.118111394054692
lfingers 7.125019999999933
lthumb 10.530952493073146 17.01665078044755
rfemur -2.7881784814146107 1.0377182464435826 5.576240173317455
rtibia 8.349090644733346
rfoot -1.5720814342510523 -1.360567766915096
rtoes 0.7995759467131023
lfemur -6.5139978987527885 -3.5708578425620576 -12.233206805790926
ltibia 27.40533833771837
lfoot -19.27098193254135 7.973984571117375
ltoes -43.317662515218124
181
root 0 0 0 -0.3901226324249042 -2.029177356045696 -3.880853559472927
lowerback 16.488175622066972 1.1062266211980214 -0.11548618955791978
upperback 0.6883447529391766 1.4503507043761004 0.3296540519045186
thorax -8.580282781714104 0.6871363260663325 0.050805646107946245
lowerneck -7.466455660880665 -3.268779879577983 1.2867014563580064
upperneck -5.778854347052921 -4.245509137797296 1.754718148879764
head -0.6616070385422743 -2.1978825207674757 0.24522435711961235
rclavicle -3.801785549020919E-16 1.6251956509973904E-17
rhumerus 12.076912890783106 0.4773778926178558 -39.463525826298465
rradius 118.71018238252108
rwrist -30.771161215693006
rhand -11.687675514843995 -36.517667405052634
rfingers 7.125019999999963
rthumb 14.396135518741113 -65.93473196636472
lclavicle -4.0854329513839167E-16 -4.64792391190927E-16
lhumerus -43.322159694992685 -0.3887368683166319 83.14849948380625
lradius 45.241861378106144
lwrist 1.9529378725019657
lhand -15.607811565378992 -12.132288228217567
lfingers 7.125019999999933
lthumb 10.535177188056949 17.00319079103953
rfemur -2.7878807043377334 1.0376749933229032 5.575787275497131
rtibia 8.347829530110387
rfoot -1.5721488742411975 -1.3604542646478466
rtoes 0.799418607479288
lfemur -6.512614501177231 -3.5718997549299183 -12.229966035078881
ltibia 27.402294245995165
lfoot -19.276850065206325 7.979113031692954
ltoes -43.33465462041598
182
root 0 0 0 -0.391720727046038 -2.0285492089593378 -3.8811538577357005
lowerback 16.48726531451169 1.109699909942823 -0.1136532591767122
upperback 0.6900855823483633 1.45536771044227 0.32913506979303175
thorax -8.577506057747359 0.6895231470112604 0.04868330167147972
lowerneck -7.4705232308939795 -3.273219464180163 1.2799594550913658
upperneck -5.755364999458088 -4.252678303273081 1.762199413166561
head -0.6530184936834598 -2.200580510951258 0.2477286249666627
rclavicle -3.7939763075116725E-16 1.5452262503723198E-17
rhumerus 12.074703587064029 0.4561476624319969 -39.47239091715791
rradius 118.67349888569791
rwrist -30.753782734301794
rhand -11.697044000191417 -36.469085206556045
rfingers 7.125019999999963
rthumb 14.387569338658823 -65.88740802988684
lclavicle -4.1040818511640735E-16 -4.646522238170275E-16
lhumerus -43.31303532724004 -0.3882470024913467 83.1480899723672
lradius 45.22757550753567
lwrist 1.9555212812092968
lhand -15.61713105708505 -12.103330070813582
lfingers 7.125019999999933
lthumb 10.526490171022488 17.0309451024338
rfemur -2.782862638697986 1.0359374116659752 5.566427834619457
rtibia 8.333839026348835
rfoot -1.5687100554634146 -1.3578078387205958
rtoes 0.7985794860232189
lfemur -6.515247031807787 -3.5701529874719373 -12.235472598881683
ltibia 27.407905118239498
lfoot -19.266895847086275 7.970629999181739
ltoes -43.30613729158124
